<mxfile host="app.diagrams.net" modified="2023-11-05T14:36:23.844Z" agent="Mozilla/5.0 (Windows NT 10.0; Win64; x64; rv:109.0) Gecko/20100101 Firefox/119.0" version="22.0.8" etag="zAh8dy3Pe2XfO-h_8GbI" type="github">
  <diagram name="PÃ¡gina-1" id="vJQHTCMBd26ObSQaPt21">
    <mxGraphModel>
      <root>
        <mxCell id="0" />
        <mxCell id="1" parent="0" />
      </root>
    </mxGraphModel>
  </diagram>
</mxfile>
